<svg width="50" height="50" viewBox="0 0 50 50" fill="none" xmlns="http://www.w3.org/2000/svg">
<g id="logo">
<circle id="Ellipse 24" cx="25" cy="25" r="25" fill="url(#paint0_linear_604_72)"/>
<mask id="mask0_604_72" style="mask-type:alpha" maskUnits="userSpaceOnUse" x="0" y="0" width="50" height="50">
<circle id="Ellipse 18" cx="25" cy="25" r="25" fill="white"/>
</mask>
<g mask="url(#mask0_604_72)">
<path id="Union" fill-rule="evenodd" clip-rule="evenodd" d="M39.7878 7.22145C37.9926 8.72845 35.9745 9.95476 33.8018 10.8547C31.0113 12.0106 28.0204 12.6055 25 12.6055C21.9796 12.6055 18.9887 12.0106 16.1982 10.8547C14.0255 9.95476 12.0074 8.72845 10.2122 7.22145L25 -7.56638L39.7878 7.22145ZM7.32234 7.28304C7.79502 7.75573 8.28572 8.20852 8.79311 8.64052C10.7776 10.3302 13.0174 11.7018 15.4329 12.7024C18.4661 13.9587 21.717 14.6054 25 14.6054C28.2831 14.6054 31.534 13.9587 34.5671 12.7024C36.9826 11.7018 39.2224 10.3302 41.2069 8.64052C41.7143 8.20852 42.205 7.75573 42.6777 7.28305L41.2636 5.86892L26.4141 -8.9805L25 -10.3946L23.5859 -8.9805L8.73646 5.86892L7.32234 7.28304ZM42.7786 10.2122C41.2716 12.0074 40.0453 14.0255 39.1453 16.1983C37.9895 18.9888 37.3946 21.9796 37.3946 25C37.3946 28.0204 37.9895 31.0113 39.1453 33.8018C40.0453 35.9745 41.2716 37.9926 42.7786 39.7878L57.5664 25L42.7786 10.2122ZM42.717 42.6777C42.2443 42.205 41.7915 41.7143 41.3595 41.2069C39.6699 39.2224 38.2983 36.9827 37.2977 34.5671C36.0413 31.534 35.3947 28.2831 35.3947 25C35.3947 21.717 36.0413 18.4661 37.2977 15.4329C38.2982 13.0174 39.6699 10.7776 41.3595 8.79312C41.7915 8.28574 42.2443 7.79504 42.717 7.32235L44.1311 8.73647L58.9806 23.5859L60.3947 25L58.9806 26.4141L44.1311 41.2636L42.717 42.6777ZM10.8547 33.8018C9.95473 35.9745 8.72842 37.9926 7.22142 39.7878L-7.56641 25L7.22142 10.2122C8.72841 12.0074 9.95473 14.0255 10.8547 16.1982C12.0106 18.9888 12.6055 21.9796 12.6055 25C12.6055 28.0204 12.0106 31.0113 10.8547 33.8018ZM8.64049 8.79312C8.20849 8.28573 7.7557 7.79503 7.28301 7.32235L5.86889 8.73647L-8.98053 23.5859L-10.3947 25L-8.98053 26.4141L5.86889 41.2636L7.28302 42.6777C7.7557 42.205 8.20849 41.7143 8.64049 41.2069C10.3301 39.2224 11.7018 36.9826 12.7023 34.5671C13.9587 31.534 14.6053 28.2831 14.6053 25C14.6053 21.717 13.9587 18.4661 12.7023 15.4329C11.7018 13.0174 10.3301 10.7776 8.64049 8.79312ZM10.2122 42.7482C12.0074 41.2412 14.0255 40.0149 16.1982 39.1149C18.9887 37.9591 21.9796 37.3641 25 37.3642C28.0204 37.3641 31.0113 37.9591 33.8018 39.1149C35.9745 40.0149 37.9926 41.2412 39.7878 42.7482L25 57.536L10.2122 42.7482ZM42.6777 42.6866C42.205 42.2139 41.7143 41.7611 41.2069 41.3291C39.2224 39.6395 36.9826 38.2678 34.5671 37.2673C31.534 36.0109 28.2831 35.3643 25 35.3643C21.717 35.3643 18.4661 36.0109 15.4329 37.2673C13.0174 38.2678 10.7776 39.6395 8.79311 41.3291C8.28572 41.7611 7.79502 42.2139 7.32234 42.6866L8.73646 44.1007L23.5859 58.9502L25 60.3643L26.4141 58.9502L41.2636 44.1007L42.6777 42.6866Z" fill="white"/>
<circle id="Ellipse 14" cx="25" cy="25" r="23.848" stroke="white" stroke-width="2.304"/>
<circle id="Ellipse 22" cx="25" cy="24.9999" r="10.2501" stroke="white" stroke-width="1.99987"/>
<circle id="Ellipse 23" cx="25" cy="25" r="8" fill="url(#paint1_linear_604_72)"/>
<path id="Union_2" fill-rule="evenodd" clip-rule="evenodd" d="M24 31.6765V29.3884C23.5185 29.2792 23.0663 29.0927 22.6572 28.8427L21.0359 30.464C21.8936 31.0874 22.9038 31.5137 24 31.6765ZM19.609 29.0627L21.2236 27.4481C20.9401 27.0117 20.7302 26.5231 20.6115 25.9999H18.3235C18.4925 27.1384 18.9459 28.1841 19.609 29.0627ZM18.3235 24L20.6115 24C20.7302 23.4767 20.9401 22.9881 21.2236 22.5518L19.609 20.9372C18.9459 21.8157 18.4926 22.8615 18.3235 24ZM21.036 19.5359L22.6572 21.1571C23.0664 20.9071 23.5186 20.7207 24.0001 20.6114V18.3234C22.9039 18.4862 21.8937 18.9125 21.036 19.5359ZM29.0628 30.3909C28.1842 31.0541 27.1384 31.5074 25.9999 31.6765L25.9999 29.3885C26.5231 29.2697 27.0118 29.0598 27.4482 28.7763L29.0628 30.3909ZM30.4641 28.964C31.0875 28.1063 31.5138 27.096 31.6765 25.9999H29.3885C29.2793 26.4814 29.0928 26.9336 28.8428 27.3427L30.4641 28.964ZM31.6765 24C31.5137 22.9038 31.0874 21.8936 30.4641 21.0359L28.8428 22.6571C29.0928 23.0663 29.2793 23.5185 29.3885 24L31.6765 24ZM29.0627 19.609L27.4482 21.2235C27.0118 20.94 26.5232 20.7301 25.9999 20.6114V18.3234C27.1384 18.4925 28.1842 18.9458 29.0627 19.609ZM33 25C33 29.4182 29.4183 33 25 33C20.5817 33 17 29.4182 17 25C17 20.5817 20.5817 17 25 17C29.4183 17 33 20.5817 33 25Z" fill="white"/>
</g>
</g>
<defs>
<linearGradient id="paint0_linear_604_72" x1="0" y1="25" x2="50" y2="25" gradientUnits="userSpaceOnUse">
<stop stop-color="#F46B45"/>
<stop offset="1" stop-color="#EEA849"/>
</linearGradient>
<linearGradient id="paint1_linear_604_72" x1="17" y1="25" x2="33" y2="25" gradientUnits="userSpaceOnUse">
<stop stop-color="#F46B45"/>
<stop offset="1" stop-color="#EEA849"/>
</linearGradient>
</defs>
</svg>
