<svg width="49" height="50" viewBox="0 0 49 50" fill="none" xmlns="http://www.w3.org/2000/svg">
<mask id="mask0_103_8355" style="mask-type:luminance" maskUnits="userSpaceOnUse" x="2" y="1" width="46" height="46">
<path d="M8.87439 8.13253C-0.158143 16.9514 -0.158169 31.4776 8.87434 40.2964C17.6062 48.8218 31.5456 48.8218 40.2775 40.2964C49.31 31.4776 49.31 16.9514 40.2774 8.13253C31.5456 -0.392742 17.6062 -0.392742 8.87439 8.13253Z" fill="white"/>
</mask>
<g mask="url(#mask0_103_8355)">
<path fill-rule="evenodd" clip-rule="evenodd" d="M24.0925 -15.8426V22.7058H24.8487V-15.8426H24.0925Z" fill="#333333"/>
<path fill-rule="evenodd" clip-rule="evenodd" d="M28.9269 -11.0775L24.0964 22.6523L24.8449 22.7595L29.6754 -10.9703L28.9269 -11.0775Z" fill="#333333"/>
<path fill-rule="evenodd" clip-rule="evenodd" d="M33.7735 -6.32537L24.1121 22.586L24.8293 22.8257L34.4907 -6.08569L33.7735 -6.32537Z" fill="#333333"/>
<path fill-rule="evenodd" clip-rule="evenodd" d="M38.6385 -1.5819L24.1466 22.5109L24.7946 22.9006L39.2865 -1.19212L38.6385 -1.5819Z" fill="#333333"/>
<path fill-rule="evenodd" clip-rule="evenodd" d="M43.526 3.16392L24.2036 22.4382L24.7377 22.9736L44.0601 3.69931L43.526 3.16392Z" fill="#333333"/>
<path fill-rule="evenodd" clip-rule="evenodd" d="M48.4296 7.92571L24.2765 22.3814L24.6648 23.0303L48.818 8.57458L48.4296 7.92571Z" fill="#333333"/>
<path fill-rule="evenodd" clip-rule="evenodd" d="M53.3351 12.7099L24.3513 22.3471L24.5899 23.0647L53.5737 13.4274L53.3351 12.7099Z" fill="#333333"/>
<path fill-rule="evenodd" clip-rule="evenodd" d="M58.2318 17.5128L24.4173 22.3314L24.524 23.0801L58.3385 18.2614L58.2318 17.5128Z" fill="#333333"/>
<path fill-rule="evenodd" clip-rule="evenodd" d="M63.1156 22.3278H24.4706V23.084H63.1156V22.3278Z" fill="#333333"/>
<path fill-rule="evenodd" clip-rule="evenodd" d="M19.2656 -10.9703L24.0963 22.7595L24.8449 22.6523L20.0142 -11.0775L19.2656 -10.9703Z" fill="#333333"/>
<path fill-rule="evenodd" clip-rule="evenodd" d="M14.4507 -6.08569L24.112 22.8257L24.8292 22.586L15.168 -6.32537L14.4507 -6.08569Z" fill="#333333"/>
<path fill-rule="evenodd" clip-rule="evenodd" d="M9.65466 -1.19212L24.1466 22.9006L24.7946 22.5109L10.3027 -1.5819L9.65466 -1.19212Z" fill="#333333"/>
<path fill-rule="evenodd" clip-rule="evenodd" d="M4.88098 3.69931L24.2036 22.9736L24.7377 22.4382L5.41503 3.16392L4.88098 3.69931Z" fill="#333333"/>
<path fill-rule="evenodd" clip-rule="evenodd" d="M0.123291 8.57458L24.2764 23.0303L24.6648 22.3814L0.511643 7.92571L0.123291 8.57458Z" fill="#333333"/>
<path fill-rule="evenodd" clip-rule="evenodd" d="M-4.63251 13.4274L24.3513 23.0647L24.5899 22.3471L-4.39391 12.7099L-4.63251 13.4274Z" fill="#333333"/>
<path fill-rule="evenodd" clip-rule="evenodd" d="M-9.39703 18.2614L24.4173 23.0801L24.524 22.3314L-9.29035 17.5128L-9.39703 18.2614Z" fill="#333333"/>
<path fill-rule="evenodd" clip-rule="evenodd" d="M-14.1744 23.084H24.4706V22.3278H-14.1744V23.084Z" fill="#333333"/>
<path fill-rule="evenodd" clip-rule="evenodd" d="M24.8487 61.2544V22.706H24.0925V61.2544H24.8487Z" fill="#333333"/>
<path fill-rule="evenodd" clip-rule="evenodd" d="M20.0142 56.4893L24.8449 22.7595L24.0963 22.6522L19.2656 56.382L20.0142 56.4893Z" fill="#333333"/>
<path fill-rule="evenodd" clip-rule="evenodd" d="M15.168 51.7371L24.8292 22.8257L24.112 22.586L14.4507 51.4974L15.168 51.7371Z" fill="#333333"/>
<path fill-rule="evenodd" clip-rule="evenodd" d="M10.3027 46.9937L24.7946 22.9009L24.1466 22.5111L9.65466 46.6039L10.3027 46.9937Z" fill="#333333"/>
<path fill-rule="evenodd" clip-rule="evenodd" d="M5.41503 42.248L24.7377 22.9737L24.2036 22.4383L4.88098 41.7127L5.41503 42.248Z" fill="#333333"/>
<path fill-rule="evenodd" clip-rule="evenodd" d="M0.511638 37.4858L24.6648 23.0304L24.2764 22.3815L0.123291 36.837L0.511638 37.4858Z" fill="#333333"/>
<path fill-rule="evenodd" clip-rule="evenodd" d="M-4.39385 32.7019L24.59 23.0648L24.3514 22.3473L-4.63245 31.9843L-4.39385 32.7019Z" fill="#333333"/>
<path fill-rule="evenodd" clip-rule="evenodd" d="M-9.29035 27.8987L24.524 23.0803L24.4173 22.3316L-9.39703 27.15L-9.29035 27.8987Z" fill="#333333"/>
<path fill-rule="evenodd" clip-rule="evenodd" d="M29.6754 56.3821L24.8449 22.6523L24.0964 22.7595L28.9269 56.4893L29.6754 56.3821Z" fill="#333333"/>
<path fill-rule="evenodd" clip-rule="evenodd" d="M34.4907 51.4974L24.8293 22.586L24.1121 22.8257L33.7735 51.7371L34.4907 51.4974Z" fill="#333333"/>
<path fill-rule="evenodd" clip-rule="evenodd" d="M39.2865 46.6039L24.7946 22.5111L24.1466 22.9009L38.6385 46.9937L39.2865 46.6039Z" fill="#333333"/>
<path fill-rule="evenodd" clip-rule="evenodd" d="M44.0601 41.7127L24.7377 22.4383L24.2036 22.9737L43.526 42.248L44.0601 41.7127Z" fill="#333333"/>
<path fill-rule="evenodd" clip-rule="evenodd" d="M48.818 36.837L24.6648 22.3815L24.2765 23.0304L48.4296 37.4858L48.818 36.837Z" fill="#333333"/>
<path fill-rule="evenodd" clip-rule="evenodd" d="M53.5737 31.9843L24.5899 22.3473L24.3513 23.0648L53.3351 32.7019L53.5737 31.9843Z" fill="#333333"/>
<path fill-rule="evenodd" clip-rule="evenodd" d="M58.3385 27.15L24.524 22.3316L24.4173 23.0803L58.2318 27.8987L58.3385 27.15Z" fill="#333333"/>
<path d="M39.0148 22.7059C39.0148 30.7182 32.5031 37.2136 24.4706 37.2136C16.438 37.2136 9.92651 30.7182 9.92651 22.7059C9.92651 14.6935 16.438 8.19826 24.4706 8.19826C32.5031 8.19826 39.0148 14.6935 39.0148 22.7059Z" fill="#FF5C00"/>
<path fill-rule="evenodd" clip-rule="evenodd" d="M9.5484 22.7058C9.5484 30.9278 16.23 37.5916 24.4705 37.5916C32.711 37.5916 39.3929 30.9278 39.3929 22.7058C39.3929 14.4836 32.711 7.81997 24.4705 7.81997C16.2301 7.81997 9.5484 14.4836 9.5484 22.7058ZM24.4705 36.8353C16.6459 36.8353 10.3046 30.5083 10.3046 22.7058C10.3046 14.903 16.6459 8.57619 24.4705 8.57619C32.2952 8.57619 38.6367 14.903 38.6367 22.7058C38.6367 30.5083 32.2952 36.8353 24.4705 36.8353Z" fill="#333333"/>
<path fill-rule="evenodd" clip-rule="evenodd" d="M24.4705 10.2814C20.5766 10.2814 17.0998 12.0645 14.8164 14.8556L15.4017 15.3345C17.5474 12.7116 20.8127 11.0376 24.4705 11.0376V10.2814Z" fill="#333333"/>
<path fill-rule="evenodd" clip-rule="evenodd" d="M12.652 18.7754C12.2391 20.0113 12.0159 21.3329 12.0159 22.7058H12.7721C12.7721 21.4153 12.9819 20.1746 13.3692 19.015L12.652 18.7754Z" fill="#333333"/>
<path d="M58.4399 29.838C52.1839 30.6743 45.7975 28.9942 40.1446 26.1927C35.2683 23.7763 30.8546 20.5553 26.5314 17.2406C25.3168 16.3092 23.6247 16.3092 22.41 17.2406C18.0865 20.5553 13.6728 23.7763 8.79678 26.1927C3.14382 28.9942 -3.24239 30.6743 -9.4986 29.838L6.71262 48.2295H42.2287L58.4399 29.838Z" fill="#FFA600"/>
<path fill-rule="evenodd" clip-rule="evenodd" d="M6.54185 48.6077H42.3995L59.3924 29.3293L58.3898 29.4633C52.2319 30.2865 45.9229 28.6344 40.3124 25.854C35.4717 23.4552 31.0829 20.2539 26.7614 16.9406C25.4112 15.9051 23.5304 15.9052 22.1799 16.9406C17.8583 20.2539 13.4694 23.4551 8.62887 25.854C3.01844 28.6344 -3.29044 30.2865 -9.44853 29.4633L-10.4511 29.3293L6.54185 48.6077ZM6.88334 47.8515L-8.56636 30.3239C-2.53077 30.8834 3.56244 29.2088 8.96466 26.5315C13.8762 24.0975 18.3147 20.8568 22.64 17.5407C23.719 16.7134 25.2225 16.7134 26.3012 17.5407C30.6263 20.8568 35.0649 24.0976 39.9767 26.5315C45.3789 29.2088 51.4722 30.8834 57.5077 30.324L42.058 47.8515H6.88334Z" fill="#333333"/>
<path d="M58.4403 29.8376L42.2291 48.2295H24.6653C24.1265 47.6358 23.7 46.945 23.4295 46.1939C22.6182 43.9446 23.2241 41.2528 24.9208 39.5668C25.702 38.7897 26.6716 38.2305 27.5457 37.5591C28.4224 36.8857 29.238 36.0439 29.5149 34.9752C29.8895 33.529 29.1731 31.9963 28.1669 30.8888C27.1584 29.7836 25.8707 28.972 24.7586 27.9704C23.9924 27.2817 23.2653 26.3774 23.3387 25.3499C23.4145 24.3201 24.265 23.5344 25.0895 22.9084C25.9117 22.2822 26.8251 21.626 27.1195 20.6373C27.3857 19.7351 27.2991 18.5004 26.6889 17.7815C26.1132 17.1037 25.3643 16.6006 24.2759 16.5488C25.0658 16.5014 25.8685 16.7324 26.5308 17.2396C30.8545 20.5553 35.2693 23.7761 40.1451 26.1939C45.7976 28.9936 52.1839 30.6753 58.4403 29.8376Z" fill="#FF8F00"/>
<path fill-rule="evenodd" clip-rule="evenodd" d="M24.4979 48.6074H42.3998L59.393 29.3284L58.3901 29.4627C52.2319 30.2872 45.9231 28.6336 40.313 25.8549C35.4726 23.4546 31.0827 20.2536 26.761 16.9394C26.0248 16.3756 25.1318 16.1185 24.2532 16.1712L24.258 16.9263C25.2184 16.972 25.8761 17.4083 26.4007 18.0261C26.6444 18.3132 26.7992 18.7247 26.8578 19.1879C26.916 19.6486 26.8748 20.1299 26.7571 20.5294C26.6343 20.9414 26.3783 21.2999 26.0358 21.6405C25.7211 21.9536 25.3535 22.2328 24.9738 22.5212C24.9363 22.5497 24.8986 22.5783 24.8609 22.6071M29.149 34.8802C28.9044 35.8241 28.1725 36.6007 27.3155 37.2591C27.0262 37.4813 26.7313 37.6873 26.4285 37.8989C26.2805 38.0022 26.1307 38.1069 25.9787 38.2155C25.5245 38.5398 25.0669 38.888 24.6543 39.2984M27.4595 18.4234C31.4209 21.4274 35.5033 24.314 39.9772 26.5325C45.3788 29.2079 51.4721 30.884 57.5079 30.3235L42.0584 47.8512H24.8358C24.38 47.3207 24.0195 46.716 23.7853 46.0656C23.0239 43.9546 23.5949 41.4173 25.1873 39.8348C25.5559 39.4682 25.9738 39.1482 26.4182 38.8309C26.5565 38.7321 26.6991 38.6324 26.8436 38.5314C27.1543 38.3143 27.4734 38.0913 27.7761 37.8588C28.6723 37.1703 29.5718 36.2634 29.881 35.0699C30.3017 33.4456 29.4922 31.785 28.4468 30.6344L28.4463 30.6338C27.9206 30.0577 27.3267 29.563 26.7368 29.0945C26.6041 28.989 26.4719 28.8852 26.3407 28.7821C25.8822 28.4219 25.4351 28.0705 25.0117 27.6892C24.2531 27.0074 23.6564 26.2122 23.7158 25.3771C23.778 24.535 24.485 23.842 25.3182 23.2094C25.3565 23.1802 25.3958 23.1504 25.435 23.1206C25.8079 22.8375 26.2164 22.5275 26.5691 22.1767C26.9624 21.7855 27.3102 21.3216 27.4819 20.745L27.4822 20.7441C27.6304 20.2416 27.679 19.6547 27.608 19.0931C27.5795 18.8677 27.5311 18.6415 27.4595 18.4234ZM24.4979 48.6074L24.3853 48.4834L24.4979 48.6074ZM24.3853 48.4834C23.8155 47.8555 23.3622 47.1226 23.0739 46.322L24.3853 48.4834ZM23.0739 46.322C22.2128 43.9344 22.8536 41.0879 24.6543 39.2984L23.0739 46.322Z" fill="#333333"/>
<path d="M27.9261 38.167C26.0182 40.7817 24.1778 43.3652 21.3396 44.8554C18.8213 46.3034 15.9361 46.8141 13.0353 46.5821L13.3975 42.252C14.592 42.1447 15.719 41.4577 16.361 40.4492C17.0029 39.4385 17.1461 38.129 16.7367 37.0069C16.4259 36.1524 15.8288 35.4319 15.1646 34.8116C14.5024 34.1893 13.7667 33.6495 13.0956 33.0358C12.5231 32.5161 11.9619 31.829 12.0667 31.0637C12.1475 30.4949 12.5968 30.0308 13.1158 29.7832C13.6369 29.5355 14.1223 29.3569 14.7574 29.4708C15.1646 29.5824 15.5558 29.7743 15.9091 30.0442C19.7561 32.9935 23.6745 35.8669 27.9261 38.167Z" fill="#FF8F00"/>
<path fill-rule="evenodd" clip-rule="evenodd" d="M21.5218 45.1866C24.3668 43.6905 26.2312 41.1332 28.0729 38.6071C28.1258 38.5346 28.1786 38.4621 28.2315 38.3897L28.4865 38.0402L28.106 37.8343C23.8825 35.5494 19.9841 32.6917 16.1392 29.7439C15.7474 29.4448 15.3117 29.2305 14.8574 29.106L14.8409 29.1015L14.8241 29.0985C14.0697 28.9632 13.4945 29.1844 12.9535 29.4415C12.3624 29.7236 11.7966 30.276 11.6924 31.0104L11.6921 31.0122C11.6245 31.5058 11.7754 31.9557 12.0026 32.3357C12.2285 32.7134 12.5422 33.0438 12.841 33.3151C13.1639 33.6104 13.5007 33.8884 13.8289 34.1592C13.8502 34.1768 13.8714 34.1944 13.8927 34.2119C14.2438 34.5018 14.5845 34.7852 14.9056 35.087L14.9065 35.0878C15.5505 35.6892 16.0996 36.3613 16.3814 37.136C16.7504 38.1473 16.621 39.3343 16.0419 40.2462C15.4629 41.1556 14.4413 41.7784 13.3636 41.8752L13.0471 41.9036L12.6268 46.9286L13.0051 46.9588C15.9668 47.1957 18.9284 46.676 21.5218 45.1866ZM13.444 46.231L13.7488 42.5873C14.9392 42.3863 16.0322 41.6696 16.6799 40.6521C17.3846 39.5427 17.5417 38.1102 17.092 36.8775C16.7522 35.9433 16.1072 35.1745 15.423 34.5355C15.0821 34.2151 14.7239 33.9176 14.3741 33.6288C14.3541 33.6122 14.334 33.5956 14.314 33.5791C13.9823 33.3053 13.6592 33.0386 13.3508 32.7566L13.3498 32.7557C13.0762 32.5073 12.8232 32.2345 12.6516 31.9476C12.4816 31.6633 12.4043 31.3872 12.4412 31.1158C12.4988 30.713 12.8319 30.3376 13.2781 30.1245C13.7738 29.8889 14.1663 29.7533 14.6741 29.8399C15.028 29.9392 15.3693 30.1076 15.6793 30.3442C19.4142 33.2076 23.2333 36.0129 27.3666 38.2921C25.5403 40.7949 23.7885 43.1424 21.1638 44.5205L21.1574 44.5238L21.1511 44.5275C18.8181 45.8689 16.1521 46.3857 13.444 46.231Z" fill="#333333"/>
<path d="M16.3609 40.4494C15.719 41.4576 14.592 42.1449 13.3974 42.2519L13.0352 46.5823C7.56689 46.1495 2.0359 43.0841 -1.23828 38.6982C3.40474 36.3198 7.63859 33.2257 11.7896 30.0443C12.6527 29.3838 13.7555 29.1921 14.7574 29.471C14.1222 29.3571 13.6368 29.5357 13.1158 29.7833C12.5968 30.0308 12.1473 30.4948 12.0667 31.0639C11.9616 31.829 12.5231 32.516 13.0956 33.036C13.7666 33.6494 14.5024 34.1893 15.1643 34.8116C15.8288 35.432 16.4258 36.1526 16.7367 37.0071C17.1461 38.1292 17.0029 39.4387 16.3609 40.4494Z" fill="#FFA600"/>
<path fill-rule="evenodd" clip-rule="evenodd" d="M13.3807 46.9888L13.7488 42.5874C14.9393 42.3865 16.0322 41.6696 16.6799 40.6523C17.3846 39.5428 17.5417 38.1102 17.0919 36.8774C16.752 35.9434 16.1072 35.1747 15.4229 34.5356C15.082 34.2152 14.7239 33.9176 14.3741 33.6288C14.3535 33.6118 14.333 33.5948 14.3125 33.5779C13.9813 33.3045 13.6587 33.0383 13.3507 32.7568L13.3498 32.7559C13.0762 32.5074 12.8231 32.2346 12.6516 31.9477C12.4814 31.6632 12.4042 31.3873 12.4412 31.116C12.4986 30.713 12.8319 30.3375 13.2784 30.1246C13.7793 29.8865 14.1749 29.7506 14.6907 29.843L14.8588 29.1066C13.7454 28.7967 12.5194 29.0096 11.5598 29.744C7.41068 32.9238 3.19967 35.9999 -1.41067 38.3616L-1.80902 38.5656L-1.54127 38.9243C1.79775 43.397 7.42811 46.5176 13.0054 46.9591L13.3807 46.9888ZM11.8669 30.4613C11.7812 30.6302 11.7202 30.8139 11.6923 31.0108L11.6921 31.0123C11.6243 31.5059 11.7753 31.9558 12.0026 32.3358C12.2284 32.7135 12.5422 33.044 12.841 33.3153C13.1634 33.6101 13.4998 33.8877 13.8275 34.1581C13.8492 34.1761 13.871 34.194 13.8926 34.2119C14.2438 34.5018 14.5844 34.7852 14.9053 35.087L14.9063 35.0878C15.5505 35.6894 16.0996 36.3616 16.3814 37.1362C16.7504 38.1476 16.621 39.3346 16.0418 40.2465C15.4627 41.1557 14.4412 41.7786 13.3637 41.8752L13.0471 41.9036L12.6902 46.1714C7.60216 45.6551 2.49728 42.8371 -0.663503 38.8262C3.79758 36.4903 7.88183 33.5118 11.8669 30.4613Z" fill="#333333"/>
</g>
<mask id="mask1_103_8355" style="mask-type:luminance" maskUnits="userSpaceOnUse" x="12" y="29" width="12" height="18">
<path d="M13.1157 29.7833C12.5969 30.0307 12.1474 30.495 12.0668 31.0638C11.9618 31.8292 12.5232 32.5162 13.0957 33.0361C13.7666 33.6496 14.5025 34.1895 15.1645 34.8117C15.8287 35.432 16.426 36.1527 16.7366 37.0072C17.146 38.1293 17.003 39.4388 16.3611 40.4493C16.1349 40.8045 15.8485 41.1199 15.5202 41.3841C14.4725 42.2273 13.3157 43.2301 13.2036 44.5702L13.1459 45.2602C13.1145 45.6354 13.2501 46.0053 13.5166 46.2712C13.7468 46.5008 14.0559 46.6363 14.381 46.636C16.8212 46.6334 19.2115 46.0791 21.3395 44.8555C25.7795 42.5243 24.0135 36.0007 19.9481 33.0646C18.5859 32.0808 17.2432 31.0671 15.9092 30.0443C15.5557 29.7745 15.1645 29.5825 14.7576 29.4709C14.623 29.4469 14.4953 29.4358 14.3723 29.4358C13.9151 29.4358 13.5265 29.5881 13.1157 29.7833Z" fill="white"/>
</mask>
<g mask="url(#mask1_103_8355)">
<path fill-rule="evenodd" clip-rule="evenodd" d="M31.0796 30.1806H10.2787V30.9368H31.0796V30.1806Z" fill="#333333"/>
<path fill-rule="evenodd" clip-rule="evenodd" d="M31.0796 31.8524H10.2787V32.6086H31.0796V31.8524Z" fill="#333333"/>
<path fill-rule="evenodd" clip-rule="evenodd" d="M31.0796 33.5243H10.2787V34.2805H31.0796V33.5243Z" fill="#333333"/>
<path fill-rule="evenodd" clip-rule="evenodd" d="M31.0796 35.1962H10.2787V35.9524H31.0796V35.1962Z" fill="#333333"/>
<path fill-rule="evenodd" clip-rule="evenodd" d="M31.0796 36.8683H10.2787V37.6245H31.0796V36.8683Z" fill="#333333"/>
<path fill-rule="evenodd" clip-rule="evenodd" d="M31.0796 38.5399H10.2787V39.2961H31.0796V38.5399Z" fill="#333333"/>
<path fill-rule="evenodd" clip-rule="evenodd" d="M31.0796 40.2121H10.2787V40.9683H31.0796V40.2121Z" fill="#333333"/>
<path fill-rule="evenodd" clip-rule="evenodd" d="M31.0796 41.8839H10.2787V42.6401H31.0796V41.8839Z" fill="#333333"/>
<path fill-rule="evenodd" clip-rule="evenodd" d="M31.0796 43.5558H10.2787V44.312H31.0796V43.5558Z" fill="#333333"/>
</g>
<mask id="mask2_103_8355" style="mask-type:luminance" maskUnits="userSpaceOnUse" x="1" y="2" width="47" height="46">
<path d="M8.37192 8.86081C-0.5573 17.7677 -0.557327 32.2322 8.37186 41.1391C17.2695 50.0145 31.6718 50.0145 40.5694 41.1391C49.4986 32.2323 49.4986 17.7677 40.5694 8.86081C31.6718 -0.0144958 17.2695 -0.0144958 8.37192 8.86081Z" fill="white"/>
</mask>
<g mask="url(#mask2_103_8355)">
<path d="M37.1526 30.0446C35.9378 29.1132 34.246 29.1132 33.0312 30.0446C28.708 33.3593 24.294 36.5802 19.418 38.9968C14.9565 41.208 13.0213 48.237 16.7888 51.4926L19.6323 53.9499C22.4895 56.4189 26.7679 56.2639 29.4389 53.5946L38.4012 44.6382C42.5042 40.5379 41.7558 33.574 37.1526 30.0446Z" fill="#FFA600"/>
<path fill-rule="evenodd" clip-rule="evenodd" d="M29.1717 53.3273C26.6408 55.8565 22.5868 56.0033 19.8795 53.6639L17.036 51.2066C15.2906 49.6984 14.8362 47.2897 15.3857 44.9392C15.9354 42.5879 17.4738 40.3824 19.5859 39.3357L19.3462 38.852L19.5859 39.3357C24.4974 36.9015 28.9362 33.6608 33.2613 30.3447C34.3403 29.5174 35.8435 29.5174 36.9225 30.3447C41.3609 33.7478 42.0609 40.4465 38.1339 44.3709L29.1717 53.3273ZM19.3851 54.236C22.3921 56.8346 26.8951 56.6715 29.7062 53.8622L38.6685 44.9058C42.9475 40.6295 42.1507 33.4004 37.3826 29.7446C36.0322 28.7091 34.1516 28.7091 32.8011 29.7446C28.4797 33.0579 24.0907 36.2591 19.2501 38.6581C16.9007 39.8225 15.2408 42.2371 14.6493 44.767C14.0577 47.2977 14.5194 50.0314 16.5416 51.7788L19.3851 54.236Z" fill="#333333"/>
<path d="M38.4895 44.2534C38.5999 43.5906 38.3574 42.9105 38.0026 42.3386C37.4247 41.408 36.5592 40.6914 35.6459 40.0872C35.0702 39.705 34.4643 39.3529 33.9818 38.8609C33.4991 38.3665 33.1464 37.693 33.2242 37.0089C33.2914 36.4172 33.668 35.9034 34.1029 35.4977C34.5379 35.0918 35.0422 34.7659 35.4771 34.36C36.2584 33.6325 36.8122 32.5922 36.717 31.5301C36.6948 31.2897 36.6607 31.052 36.6024 30.8266C36.5305 30.5484 36.9242 29.8699 37.1521 30.0449C39.544 31.879 41.9646 33.683 44.4756 35.3393C45.4715 35.9962 45.6379 37.4071 44.794 38.2505L38.6776 44.3631C38.6096 44.431 38.4737 44.3481 38.4895 44.2534Z" fill="#FF8F00"/>
<path fill-rule="evenodd" clip-rule="evenodd" d="M38.359 44.6944C38.4831 44.7682 38.7423 44.8331 38.9449 44.6306L45.0613 38.5181C46.0805 37.4995 45.8725 35.8078 44.6838 35.0237C42.1843 33.375 39.7721 31.5776 37.3824 29.7451C37.1476 29.5648 36.8937 29.6479 36.7564 29.7356C36.6242 29.8201 36.5206 29.9472 36.4473 30.0607C36.3704 30.1797 36.3053 30.3171 36.2641 30.4528C36.2266 30.5765 36.1925 30.7515 36.2364 30.9214C36.2878 31.1199 36.3194 31.3357 36.3405 31.5644C36.4219 32.4746 35.9451 33.4077 35.2195 34.0834L35.2192 34.0837C35.0161 34.2732 34.7947 34.446 34.5577 34.6307L34.5516 34.6355C34.3208 34.8153 34.0748 35.007 33.845 35.2214C33.3831 35.6523 32.9307 36.2437 32.8486 36.9662M38.359 44.6944C38.2345 44.6204 38.0746 44.4429 38.1165 44.1913L38.359 44.6944ZM38.8777 43.6287C38.8159 43.0849 38.5916 42.5708 38.324 42.1394L38.3239 42.1392C37.7041 41.1413 36.7866 40.3886 35.8547 39.7721C35.7401 39.696 35.6273 39.6228 35.5166 39.551C35.0455 39.2453 34.6134 38.9649 34.2522 38.5967C33.8133 38.147 33.5398 37.5804 33.6 37.0517L33.6 37.0516C33.6523 36.5909 33.953 36.1548 34.3609 35.7743L34.361 35.7743C34.5641 35.5847 34.7854 35.412 35.0225 35.2273L35.0285 35.2225C35.2594 35.0427 35.5053 34.851 35.7351 34.6366C36.5718 33.8574 37.2024 32.7102 37.0936 31.4965L37.0936 31.4955C37.0708 31.2484 37.0351 30.9937 36.9721 30.7461C36.9722 30.745 36.9723 30.7438 36.9724 30.7424C36.9738 30.7277 36.9781 30.7041 36.9877 30.6724C37.0073 30.6082 37.0414 30.5346 37.0824 30.4711C37.0829 30.4704 37.0834 30.4697 37.0838 30.469C39.4254 32.2622 41.8019 34.0287 44.2674 35.655C45.0707 36.1848 45.1953 37.315 44.5267 37.9832L38.8777 43.6287ZM36.9224 30.3453C36.9222 30.3452 36.9221 30.345 36.9219 30.3449L36.9221 30.345C36.9222 30.3451 36.9223 30.3452 36.9224 30.3453ZM35.8547 39.7721C35.8547 39.7721 35.8546 39.772 35.8545 39.772L35.6459 40.0873L35.8551 39.7724C35.855 39.7723 35.8548 39.7722 35.8547 39.7721ZM37.6814 42.5382C38.0125 43.072 38.2056 43.6566 38.1165 44.1913L38.1165 44.1913M37.6813 42.538C37.1453 41.675 36.332 40.9946 35.4373 40.4027L35.4367 40.4023C35.3383 40.3369 35.2363 40.2709 35.1323 40.2036C34.6566 39.8957 34.1375 39.5598 33.7119 39.1258L33.7113 39.1252C33.1849 38.586 32.7531 37.8058 32.8486 36.9663" fill="#333333"/>
<path d="M26.7675 43.0401C33.3822 48.0981 36.5 59.8574 28.2727 61.1414C27.397 61.2978 26.5331 61.3756 25.6845 61.3811C24.5799 61.3882 23.7807 60.4025 23.8567 59.3006C23.9362 58.1473 22.9258 57.1697 22.1766 56.2892C22.119 56.2215 22.0649 56.1507 22.0148 56.077C21.7577 55.6977 21.6034 55.2227 21.7108 54.7763C21.8002 54.3972 22.0664 54.0848 22.3639 53.8304C23.4776 52.869 25.1102 52.5254 25.9557 51.3229C26.4722 50.5866 26.5975 49.6184 26.3896 48.7438C26.1838 47.8693 25.6693 47.0886 25.0253 46.464C24.6025 46.0557 24.1239 45.7077 23.7549 45.2525C23.3837 44.7996 23.0415 44.1816 23.1824 43.615C23.2006 43.5403 23.2238 43.4672 23.2517 43.3959C23.7275 42.1785 25.4947 42.0616 26.5305 42.8587C26.6095 42.9192 26.6885 42.9797 26.7675 43.0401Z" fill="#FF8F00"/>
<path fill-rule="evenodd" clip-rule="evenodd" d="M23.4796 59.2746C23.3909 60.5615 24.3292 61.768 25.687 61.7592C26.5559 61.7536 27.4397 61.6741 28.3352 61.5145C30.4903 61.1771 31.9445 60.1418 32.7687 58.6672C33.5847 57.2075 33.7565 55.3658 33.4596 53.4482C32.8666 49.6181 30.3812 45.3273 26.9972 42.7398L26.7612 42.5591C26.7611 42.559 26.7609 42.5589 26.7608 42.5588C26.1587 42.0956 25.3563 41.9032 24.6326 41.997C23.9046 42.0913 23.2008 42.4876 22.8996 43.2583C22.8657 43.3448 22.8375 43.4338 22.8153 43.5247C22.8152 43.525 22.8152 43.5252 22.8151 43.5255L23.1823 43.615L22.8155 43.5238C22.8155 43.5241 22.8154 43.5244 22.8153 43.5247C22.7196 43.9105 22.7935 44.2912 22.9263 44.6186C23.0593 44.9465 23.2614 45.2467 23.4619 45.4915C23.4617 45.4912 23.4615 45.491 23.4613 45.4907L23.755 45.2526L23.4626 45.4923C23.4624 45.492 23.4621 45.4918 23.4619 45.4915C23.6659 45.7429 23.8958 45.9597 24.1184 46.1581C24.1898 46.2218 24.2592 46.2826 24.3272 46.342C24.4781 46.4742 24.6215 46.5997 24.7624 46.7358C24.7623 46.7357 24.7622 46.7356 24.7621 46.7355L25.0254 46.4641L24.7627 46.736C24.7626 46.736 24.7625 46.7359 24.7624 46.7358C25.3683 47.3234 25.8363 48.0431 26.0216 48.8305L26.0218 48.8313C26.209 49.6189 26.0906 50.4722 25.6464 51.1057C25.6464 51.1056 25.6465 51.1056 25.6465 51.1055L25.9558 51.323L25.6462 51.1059C25.6463 51.1058 25.6463 51.1057 25.6464 51.1057C25.278 51.6295 24.7281 51.9812 24.0793 52.3352C23.9714 52.3941 23.8601 52.4533 23.7467 52.5136C23.2029 52.803 22.611 53.1178 22.1175 53.5437C22.1177 53.5435 22.1179 53.5433 22.1182 53.5431L22.3639 53.8304L22.1169 53.5442C22.1171 53.544 22.1173 53.5439 22.1175 53.5437C21.7972 53.8177 21.4598 54.1947 21.343 54.6888C21.3431 54.6885 21.3431 54.6883 21.3432 54.688L21.7108 54.7764L21.3428 54.6896C21.3429 54.6894 21.3429 54.6891 21.343 54.6888C21.2026 55.2741 21.4096 55.8579 21.7019 56.2892L21.7022 56.2897C21.7601 56.3748 21.8224 56.4564 21.8887 56.5343C21.9896 56.6529 22.0917 56.7695 22.1932 56.8854C22.4871 57.2211 22.7757 57.5508 23.014 57.9041C23.3297 58.3721 23.5109 58.8195 23.4796 59.2746ZM25.6821 61.003C24.8308 61.0085 24.1708 60.2437 24.234 59.3266C24.2821 58.6285 23.9979 58.0104 23.6409 57.4812C23.3734 57.0846 23.0389 56.7027 22.7374 56.3585C22.6421 56.2498 22.5502 56.1448 22.4647 56.0443C22.4157 55.9867 22.3699 55.9268 22.3277 55.8646C22.106 55.5375 22.0046 55.1719 22.0784 54.8648L22.0788 54.8632C22.141 54.5997 22.3353 54.3525 22.6097 54.1178L22.611 54.1167C23.0344 53.7512 23.5354 53.4839 24.0766 53.1952C24.1964 53.1313 24.3182 53.0663 24.4416 52.999C25.0988 52.6403 25.7879 52.219 26.2651 51.5405L26.2653 51.5401C26.854 50.7009 26.9861 49.6179 26.7575 48.6564C26.5311 47.6953 25.9705 46.8539 25.2886 46.1926L25.2881 46.1921C25.1332 46.0426 24.9671 45.8971 24.8097 45.7593C24.7451 45.7027 24.6819 45.6474 24.6217 45.5937C24.4072 45.4025 24.2136 45.2179 24.0487 45.0145L24.0474 45.0129C23.877 44.8049 23.7226 44.57 23.6271 44.3343C23.5312 44.0981 23.5045 43.8868 23.5494 43.7063L23.5498 43.7047C23.564 43.6465 23.5821 43.5894 23.6039 43.5336C23.7785 43.087 24.1962 42.8161 24.7298 42.7469C25.2674 42.6772 25.8664 42.8247 26.3 43.1584L26.3007 43.1589L26.5379 43.3405C29.7687 45.8109 32.1495 49.9288 32.7123 53.5639C32.9933 55.379 32.8153 57.034 32.1086 58.2983C31.4107 59.5469 30.1708 60.4626 28.2145 60.7679L28.2063 60.7692L28.2063 60.7693C27.3516 60.9219 26.5092 60.9977 25.6821 61.003Z" fill="#333333"/>
<path d="M25.9557 51.3231C25.1101 52.5256 23.4776 52.869 22.3638 53.8306C22.0663 54.0848 21.8003 54.3974 21.7107 54.7765C21.6034 55.2229 21.7577 55.6978 22.015 56.0772C22.0866 56.1826 22.1665 56.2822 22.2533 56.3754C22.9983 57.1746 23.9397 58.0957 23.8646 59.1857C23.7868 60.3142 22.7708 61.1561 21.6787 60.8617C19.3869 60.2438 17.2748 59.1027 15.4366 57.5929C11.817 54.6202 13.5548 49.2846 17.3824 46.5849C19.0857 45.3835 20.7549 44.1282 22.4108 42.8587C22.477 42.8078 22.5446 42.7597 22.6135 42.7144C22.9732 42.4778 23.2843 43.197 23.1824 43.6152C23.0414 44.1818 23.3836 44.7998 23.7549 45.2527C24.1239 45.7079 24.6027 46.0559 25.0253 46.464C25.6693 47.0888 26.1838 47.8695 26.3896 48.7439C26.5975 49.6186 26.4724 50.5868 25.9557 51.3231Z" fill="#FFA600"/>
<path fill-rule="evenodd" clip-rule="evenodd" d="M21.5802 61.2266C22.9377 61.5925 24.1502 60.5396 24.2418 59.2116C24.2876 58.5461 24.0207 57.958 23.6785 57.4579C23.3832 57.0262 23.006 56.6246 22.6748 56.2721C22.6253 56.2194 22.5769 56.1678 22.5299 56.1174C22.4559 56.0381 22.3883 55.9537 22.3279 55.8648C22.1059 55.5376 22.0044 55.1719 22.0783 54.8648L22.0786 54.8633C22.141 54.5996 22.3353 54.3521 22.6094 54.1178L22.6109 54.1166C23.0344 53.751 23.5355 53.4837 24.0768 53.1949C24.1965 53.1311 24.3182 53.0661 24.4414 52.9989C25.0987 52.6402 25.7878 52.219 26.2649 51.5404L26.2651 51.5401C26.8541 50.7009 26.9859 49.6178 26.7574 48.6563C26.531 47.6952 25.9704 46.8539 25.2885 46.1924L25.2879 46.1919C25.1331 46.0423 24.9669 45.8968 24.8094 45.759C24.7448 45.7025 24.6818 45.6473 24.6216 45.5936C24.4071 45.4024 24.2135 45.2179 24.0486 45.0145L24.0473 45.0129C23.8768 44.8049 23.7225 44.5699 23.6269 44.3343C23.5311 44.098 23.5044 43.8868 23.5492 43.7063L23.5494 43.7055M23.4873 59.1596C23.4233 60.0884 22.6039 60.7194 21.7771 60.4965C19.542 59.8939 17.4775 58.7797 15.6766 57.3006C13.9954 55.9198 13.5511 53.9975 13.9856 52.0695C14.4233 50.1276 15.7545 48.1956 17.6003 46.8937C19.3096 45.6881 20.9834 44.4293 22.6408 43.1586L22.6412 43.1583C22.6716 43.1349 22.7024 43.1122 22.7335 43.0901M21.5802 61.2266C19.2316 60.5934 17.0721 59.4253 15.1966 57.885L21.5802 61.2266ZM23.4873 59.1596C23.5166 58.735 23.3504 58.3176 23.0544 57.8848L23.4873 59.1596ZM23.0544 57.8848C22.7947 57.5053 22.4619 57.1505 22.1274 56.794L23.0544 57.8848ZM22.1274 56.794C22.0771 56.7404 22.0268 56.6868 21.9767 56.633L22.1274 56.794ZM15.1966 57.885C13.2582 56.293 12.7616 54.0611 13.2479 51.9032L15.1966 57.885ZM13.2479 51.9032C13.7311 49.7592 15.1826 47.6736 17.1644 46.2758L13.2479 51.9032ZM21.9767 56.633C21.877 56.5261 21.785 56.4114 21.7022 56.2896L21.9767 56.633ZM21.7022 56.2896L21.7021 56.2893L21.7022 56.2896ZM21.7021 56.2893C21.4095 55.8579 21.2024 55.274 21.3429 54.6887L21.7021 56.2893ZM21.3429 54.6887C21.4598 54.1948 21.7969 53.8176 22.1175 53.5435C22.6111 53.1175 23.203 52.8027 23.7468 52.5134C23.8601 52.4531 23.9714 52.3939 24.0792 52.3351C24.728 51.981 25.2779 51.6294 25.6463 51.1055M25.6463 51.1055C26.0907 50.472 26.2089 49.6189 26.0217 48.8312L25.6463 51.1055ZM26.0217 48.8312L26.0215 48.8304L26.0217 48.8312ZM26.0215 48.8304C25.8362 48.0432 25.3683 47.3236 24.7625 46.7358L26.0215 48.8304ZM24.7625 46.7358C24.6216 46.5997 24.4781 46.4741 24.327 46.3418C24.2591 46.2824 24.1897 46.2217 24.1184 46.1581C23.8958 45.9596 23.6657 45.7429 23.4618 45.4914M17.1644 46.2758C18.8617 45.0786 20.5264 43.8268 22.1807 42.5585L17.1644 46.2758Z" fill="#333333"/>
</g>
<path fill-rule="evenodd" clip-rule="evenodd" d="M7.18896 42.3251C16.7404 51.8526 32.2009 51.8526 41.7523 42.3251C51.3376 32.7638 51.3376 17.2364 41.7523 7.67505C32.2009 -1.85247 16.7404 -1.85247 7.18896 7.67505C-2.39632 17.2364 -2.39632 32.7638 7.18896 42.3251ZM41.2183 41.7897C31.9621 51.0228 16.9792 51.0228 7.72301 41.7897C-1.56606 32.5238 -1.56606 17.4763 7.72301 8.21044C16.9792 -1.02266 31.9621 -1.02266 41.2183 8.21044C50.5074 17.4763 50.5074 32.5238 41.2183 41.7897Z" fill="#333333"/>
<path fill-rule="evenodd" clip-rule="evenodd" d="M40.3024 40.8715C31.5523 49.5997 17.3889 49.5997 8.63884 40.8715C-0.142247 32.1124 -0.142248 17.8877 8.63884 9.12856C17.3889 0.400383 31.5523 0.400383 40.3024 9.12856C49.0835 17.8877 49.0835 32.1124 40.3024 40.8715ZM8.10479 41.4069C17.15 50.4295 31.7912 50.4295 40.8365 41.4069C49.9137 32.3523 49.9137 17.6478 40.8365 8.59317C31.7912 -0.429432 17.15 -0.429432 8.10479 8.59317C-0.972511 17.6478 -0.97251 32.3523 8.10479 41.4069Z" fill="#333333"/>
<path d="M15.4172 46.6987C15.7411 46.6987 15.7415 46.1969 15.4172 46.1969C15.0933 46.1969 15.0929 46.6987 15.4172 46.6987Z" fill="#333333"/>
<path d="M14.3383 45.5566C14.6622 45.5566 14.6628 45.0548 14.3383 45.0548C14.0147 45.0548 14.014 45.5566 14.3383 45.5566Z" fill="#333333"/>
<path d="M16.3796 45.5566C16.7033 45.5566 16.7039 45.0548 16.3796 45.0548C16.0557 45.0548 16.0551 45.5566 16.3796 45.5566Z" fill="#333333"/>
<path d="M33.533 46.6987C33.8567 46.6987 33.8573 46.1969 33.533 46.1969C33.2094 46.1969 33.2087 46.6987 33.533 46.6987Z" fill="#333333"/>
<path d="M32.4542 45.5566C32.7778 45.5566 32.7785 45.0548 32.4542 45.0548C32.1303 45.0548 32.1299 45.5566 32.4542 45.5566Z" fill="#333333"/>
<path d="M34.4953 45.5566C34.819 45.5566 34.8196 45.0548 34.4953 45.0548C34.1714 45.0548 34.171 45.5566 34.4953 45.5566Z" fill="#333333"/>
<path d="M3.45278 34.6384C3.77644 34.6384 3.77706 34.1366 3.45278 34.1366C3.1289 34.1366 3.12849 34.6384 3.45278 34.6384Z" fill="#333333"/>
<path d="M2.37392 33.4963C2.69779 33.4963 2.69821 32.9945 2.37392 32.9945C2.05005 32.9945 2.04963 33.4963 2.37392 33.4963Z" fill="#333333"/>
<path d="M4.41506 33.4963C4.73873 33.4963 4.73934 32.9945 4.41506 32.9945C4.09118 32.9945 4.09077 33.4963 4.41506 33.4963Z" fill="#333333"/>
<path d="M24.4707 34.6384C24.7943 34.6384 24.7949 34.1366 24.4707 34.1366C24.1468 34.1366 24.1464 34.6384 24.4707 34.6384Z" fill="#333333"/>
<path d="M23.3917 33.4963C23.7156 33.4963 23.716 32.9945 23.3917 32.9945C23.0681 32.9945 23.0674 33.4963 23.3917 33.4963Z" fill="#333333"/>
<path d="M25.433 33.4963C25.7567 33.4963 25.7573 32.9945 25.433 32.9945C25.1091 32.9945 25.1087 33.4963 25.433 33.4963Z" fill="#333333"/>
<path d="M45.4043 34.6384C45.7282 34.6384 45.7286 34.1366 45.4043 34.1366C45.0806 34.1366 45.08 34.6384 45.4043 34.6384Z" fill="#333333"/>
<path d="M44.3254 33.4963C44.6491 33.4963 44.6497 32.9945 44.3254 32.9945C44.0018 32.9945 44.0012 33.4963 44.3254 33.4963Z" fill="#333333"/>
<path d="M46.3666 33.4963C46.6903 33.4963 46.6909 32.9945 46.3666 32.9945C46.043 32.9945 46.0424 33.4963 46.3666 33.4963Z" fill="#333333"/>
</svg>
